<svg width="28" height="28" viewBox="0 0 28 28" fill="none" xmlns="http://www.w3.org/2000/svg">
  <circle cx="14" cy="10" r="4.1" fill="url(#paint0_linear_4323_23302)" stroke="url(#paint1_linear_4323_23302)" stroke-width="1.8" />
  <path d="M19.4401 22.1H14.9998H8.55953C7.8638 22.1 7.2998 21.536 7.2998 20.8403V19.6202C7.2998 17.7813 9.02794 16.432 10.8119 16.878L11.0446 16.9362C12.0111 17.1778 13.0036 17.3 13.9998 17.3C14.996 17.3 15.9885 17.1778 16.955 16.9362L17.1877 16.878C18.9717 16.432 20.6998 17.7813 20.6998 19.6202V20.8403C20.6998 21.536 20.1358 22.1 19.4401 22.1Z" fill="url(#paint2_linear_4323_23302)" />
  <path d="M17.1877 16.878L16.9694 16.0049V16.0049L17.1877 16.878ZM16.955 16.9362L17.1733 17.8093V17.8093L16.955 16.9362ZM10.8119 16.878L11.0302 16.0049V16.0049L10.8119 16.878ZM11.0446 16.9362L10.8263 17.8093V17.8093L11.0446 16.9362ZM14.9998 23H19.4401V21.2H14.9998V23ZM21.5998 20.8403V19.6202H19.7998V20.8403H21.5998ZM6.3998 19.6202V20.8403H8.1998V19.6202H6.3998ZM8.55953 23H14.9998V21.2H8.55953V23ZM16.9694 16.0049L16.7367 16.0631L17.1733 17.8093L17.406 17.7512L16.9694 16.0049ZM10.5936 17.7512L10.8263 17.8093L11.2629 16.0631L11.0302 16.0049L10.5936 17.7512ZM6.3998 20.8403C6.3998 22.0331 7.36674 23 8.55953 23V21.2C8.36086 21.2 8.1998 21.0389 8.1998 20.8403H6.3998ZM8.1998 19.6202C8.1998 18.3668 9.37769 17.4472 10.5936 17.7512L11.0302 16.0049C8.67819 15.4169 6.3998 17.1958 6.3998 19.6202H8.1998ZM13.9998 16.4C13.0772 16.4 12.158 16.2868 11.2629 16.0631L10.8263 17.8093C11.8642 18.0688 12.93 18.2 13.9998 18.2V16.4ZM13.9998 18.2C15.0696 18.2 16.1354 18.0688 17.1733 17.8093L16.7367 16.0631C15.8416 16.2868 14.9225 16.4 13.9998 16.4V18.2ZM21.5998 19.6202C21.5998 17.1958 19.3214 15.4169 16.9694 16.0049L17.406 17.7512C18.6219 17.4472 19.7998 18.3668 19.7998 19.6202H21.5998ZM19.4401 23C20.6329 23 21.5998 22.0331 21.5998 20.8403H19.7998C19.7998 21.0389 19.6388 21.2 19.4401 21.2V23Z" fill="url(#paint3_linear_4323_23302)" />
  <defs>
    <linearGradient id="paint0_linear_4323_23302" x1="9" y1="5" x2="19" y2="15" gradientUnits="userSpaceOnUse">
      <stop stop-color="#16B1FF" />
      <stop offset="1" stop-color="#3870E3" />
    </linearGradient>
    <linearGradient id="paint1_linear_4323_23302" x1="9" y1="5" x2="19" y2="15" gradientUnits="userSpaceOnUse">
      <stop stop-color="#16B1FF" />
      <stop offset="1" stop-color="#3870E3" />
    </linearGradient>
    <linearGradient id="paint2_linear_4323_23302" x1="7.2998" y1="16" x2="11.9002" y2="26.1058" gradientUnits="userSpaceOnUse">
      <stop stop-color="#16B1FF" />
      <stop offset="1" stop-color="#3870E3" />
    </linearGradient>
    <linearGradient id="paint3_linear_4323_23302" x1="7.2998" y1="16" x2="11.9002" y2="26.1058" gradientUnits="userSpaceOnUse">
      <stop stop-color="#16B1FF" />
      <stop offset="1" stop-color="#3870E3" />
    </linearGradient>
  </defs>
</svg>
  